<svg width="16" height="16" viewBox="0 0 16 16" fill="none" xmlns="http://www.w3.org/2000/svg">
<g clip-path="url(#clip0_88_3542)">
<path d="M6.5 6.5C5.67157 7.32843 5.67157 8.67157 6.5 9.5C7.32843 10.3284 8.67157 10.3284 9.5 9.5C10.3284 8.67157 10.3284 7.32843 9.5 6.5C8.67157 5.67157 7.32843 5.67157 6.5 6.5Z" stroke="#171719" stroke-width="1.5"/>
<path d="M8 1.5V3.5" stroke="#171719" stroke-width="1.5" stroke-linecap="round"/>
<path d="M14.5049 7.99512L12.5049 7.99512" stroke="#171719" stroke-width="1.5" stroke-linecap="round"/>
<path d="M3.41504 12.5928L4.82925 11.1786" stroke="#171719" stroke-width="1.5" stroke-linecap="round"/>
<path d="M12.6147 12.6028L11.2005 11.1886" stroke="#171719" stroke-width="1.5" stroke-linecap="round"/>
<path d="M8 12.5V14.5" stroke="#171719" stroke-width="1.5" stroke-linecap="round"/>
<path d="M3.50488 7.99512L1.50488 7.99512" stroke="#171719" stroke-width="1.5" stroke-linecap="round"/>
<path d="M11.1934 4.81445L12.6076 3.40024" stroke="#171719" stroke-width="1.5" stroke-linecap="round"/>
<path d="M4.83643 4.82446L3.42221 3.41025" stroke="#171719" stroke-width="1.5" stroke-linecap="round"/>
</g>
<defs>
<clipPath id="clip0_88_3542">
<rect width="16" height="16" fill="white"/>
</clipPath>
</defs>
</svg>
