<svg width="16" height="16" viewBox="0 0 16 16" fill="none" xmlns="http://www.w3.org/2000/svg">
<g clip-path="url(#clip0_88_1476)">
<path d="M6.5 6.5C5.67157 7.32843 5.67157 8.67157 6.5 9.5C7.32843 10.3284 8.67157 10.3284 9.5 9.5C10.3284 8.67157 10.3284 7.32843 9.5 6.5C8.67157 5.67157 7.32843 5.67157 6.5 6.5Z" stroke="white" stroke-width="1.5"/>
<path d="M8 1.5V3.5" stroke="white" stroke-width="1.5" stroke-linecap="round"/>
<path d="M14.505 7.995L12.505 7.995" stroke="white" stroke-width="1.5" stroke-linecap="round"/>
<path d="M3.41528 12.5927L4.8295 11.1785" stroke="white" stroke-width="1.5" stroke-linecap="round"/>
<path d="M12.6146 12.6027L11.2004 11.1885" stroke="white" stroke-width="1.5" stroke-linecap="round"/>
<path d="M8 12.5V14.5" stroke="white" stroke-width="1.5" stroke-linecap="round"/>
<path d="M3.505 7.995L1.505 7.995" stroke="white" stroke-width="1.5" stroke-linecap="round"/>
<path d="M11.1935 4.81449L12.6077 3.40028" stroke="white" stroke-width="1.5" stroke-linecap="round"/>
<path d="M4.83649 4.8245L3.42227 3.41029" stroke="white" stroke-width="1.5" stroke-linecap="round"/>
</g>
<defs>
<clipPath id="clip0_88_1476">
<rect width="16" height="16" fill="white"/>
</clipPath>
</defs>
</svg>
